<?xml version="1.0" standalone="no"?>
<svg xmlns:xlink="http://www.w3.org/1999/xlink" id="wave" style="transform:rotate(180deg); transition: 0.3s" viewBox="0 0 1440 140" version="1.1" xmlns="http://www.w3.org/2000/svg"><defs><linearGradient id="sw-gradient-0" x1="0" x2="0" y1="1" y2="0"><stop stop-color="rgba(218, 218, 218, 1)" offset="0%"/><stop stop-color="rgba(218, 218, 218, 1)" offset="100%"/></linearGradient></defs><path style="transform:translate(0, 0px); opacity:1" fill="url(#sw-gradient-0)" d="M0,98L60,84C120,70,240,42,360,39.7C480,37,600,61,720,79.3C840,98,960,112,1080,114.3C1200,117,1320,107,1440,93.3C1560,79,1680,61,1800,65.3C1920,70,2040,98,2160,109.7C2280,121,2400,117,2520,107.3C2640,98,2760,84,2880,74.7C3000,65,3120,61,3240,51.3C3360,42,3480,28,3600,25.7C3720,23,3840,33,3960,32.7C4080,33,4200,23,4320,21C4440,19,4560,23,4680,32.7C4800,42,4920,56,5040,70C5160,84,5280,98,5400,102.7C5520,107,5640,103,5760,91C5880,79,6000,61,6120,49C6240,37,6360,33,6480,32.7C6600,33,6720,37,6840,46.7C6960,56,7080,70,7200,79.3C7320,89,7440,93,7560,91C7680,89,7800,79,7920,74.7C8040,70,8160,70,8280,67.7C8400,65,8520,61,8580,58.3L8640,56L8640,140L8580,140C8520,140,8400,140,8280,140C8160,140,8040,140,7920,140C7800,140,7680,140,7560,140C7440,140,7320,140,7200,140C7080,140,6960,140,6840,140C6720,140,6600,140,6480,140C6360,140,6240,140,6120,140C6000,140,5880,140,5760,140C5640,140,5520,140,5400,140C5280,140,5160,140,5040,140C4920,140,4800,140,4680,140C4560,140,4440,140,4320,140C4200,140,4080,140,3960,140C3840,140,3720,140,3600,140C3480,140,3360,140,3240,140C3120,140,3000,140,2880,140C2760,140,2640,140,2520,140C2400,140,2280,140,2160,140C2040,140,1920,140,1800,140C1680,140,1560,140,1440,140C1320,140,1200,140,1080,140C960,140,840,140,720,140C600,140,480,140,360,140C240,140,120,140,60,140L0,140Z"/></svg>